<svg xmlns="http://www.w3.org/2000/svg" version="1.1" xmlns:xlink="http://www.w3.org/1999/xlink" width="737" height="737"><svg xmlns="http://www.w3.org/2000/svg" viewBox="0 0 737 737"><path fill="#c82424" d="M349 205.121c-68.119 7.827-126.631 60.437-141.023 126.796-19.69 90.784 35.461 177.666 125.864 198.282 9.527 2.172 10.959 2.207 104.447 2.54l94.789.338-.337-94.789c-.329-92.517-.388-95.01-2.467-104.07-6.838-29.797-19.569-53.946-40.274-76.397-37.102-40.231-87.048-58.899-140.999-52.7m2.113 65.949c-31.239 5.524-59.186 27.4-73.124 57.238-22.451 48.064-.295 107.036 49.083 130.642 17.914 8.565 16.829 8.449 82.744 8.816l58.316.324-.366-57.295-.365-57.295-2.583-9.511c-9.401-34.632-36.583-62.115-70.318-71.099-9.125-2.43-34.027-3.475-43.387-1.82" fill-rule="evenodd"></path></svg><style>@media (prefers-color-scheme: light) { :root { filter: none; } }
@media (prefers-color-scheme: dark) { :root { filter: none; } }
</style></svg>